<svg version="1.1" id="Layer_1" xmlns="http://www.w3.org/2000/svg" xmlns:xlink="http://www.w3.org/1999/xlink" x="0px" y="0px"
	 width="100%" viewBox="0 0 500 500" enable-background="new 0 0 500 500" xml:space="preserve">
<path fill="#104057" opacity="1.000000" stroke="none" 
	d="
M337.000000,501.000000 
	C224.666687,501.000000 112.833389,501.000000 1.000060,501.000000 
	C1.000040,334.333405 1.000040,167.666794 1.000020,1.000149 
	C167.666565,1.000100 334.333130,1.000100 500.999756,1.000050 
	C500.999847,167.666519 500.999847,334.333038 500.999939,500.999786 
	C446.500000,501.000000 392.000000,501.000000 337.000000,501.000000 
M363.802917,283.675018 
	C354.264984,249.938034 329.121887,223.953842 293.552612,221.499954 
	C285.633759,220.953629 282.222870,223.392059 282.128876,231.295944 
	C282.015991,240.791351 282.042114,250.289642 282.121674,259.785736 
	C282.181427,266.918915 283.896210,269.270813 290.533752,271.616852 
	C293.194183,272.557129 295.953156,273.217651 298.616821,274.149750 
	C311.625031,278.701752 321.217957,286.811523 324.893524,300.534851 
	C326.303040,305.797607 327.249542,311.266663 327.668457,316.698669 
	C329.831940,344.751434 315.983307,363.673676 288.042297,366.827576 
	C266.648499,369.242401 244.856384,368.370026 223.239914,368.432037 
	C216.155289,368.452362 208.908524,367.469635 202.009308,365.809509 
	C183.935883,361.460541 172.038437,350.267975 169.907684,331.449493 
	C168.806183,321.721191 169.566681,311.470245 171.366013,301.805481 
	C173.540100,290.127899 180.970352,281.490082 192.138260,276.704041 
	C197.161652,274.551239 202.395844,272.889221 207.539536,271.018646 
	C211.250092,269.669281 214.045532,267.467743 214.080078,263.172516 
	C214.172546,251.679535 214.292191,240.183243 214.101273,228.693253 
	C214.024185,224.055298 210.429260,221.013519 205.804306,221.226318 
	C202.156708,221.394119 198.469620,221.691208 194.900543,222.421738 
	C166.618683,228.210495 147.969254,245.595459 137.064728,271.644867 
	C127.000793,295.686218 125.738121,320.831482 130.291763,346.177826 
	C137.475357,386.162903 163.302856,411.709351 203.539078,416.996857 
	C234.291077,421.038025 265.466095,421.237305 296.155853,416.628387 
	C327.303864,411.950592 350.232849,394.917419 361.302734,364.523468 
	C370.872284,338.249054 370.509216,311.402802 363.802917,283.675018 
M275.856598,247.500046 
	C275.856598,213.537918 275.856598,179.575775 275.856598,145.279572 
	C278.233429,145.279572 280.048676,145.279663 281.863922,145.279556 
	C299.196564,145.278610 316.529236,145.307022 333.861786,145.262680 
	C341.193939,145.243927 344.814026,141.664673 344.962982,134.238129 
	C345.086609,128.074173 344.992798,121.905800 344.990784,115.739388 
	C344.987000,104.052841 342.267792,101.332634 330.537781,101.331718 
	C277.373260,101.327583 224.208725,101.329819 171.044205,101.330681 
	C169.877640,101.330696 168.707443,101.283943 167.545090,101.356903 
	C160.390747,101.806015 157.218369,104.850113 157.046188,111.962448 
	C156.860703,119.624275 156.851562,127.298180 157.053513,134.959229 
	C157.231934,141.727798 161.019379,145.243652 167.833206,145.261719 
	C185.332382,145.308105 202.831741,145.278687 220.331039,145.279556 
	C222.111618,145.279648 223.892197,145.279587 226.127335,145.279587 
	C226.127335,147.762405 226.127350,149.734528 226.127350,151.706650 
	C226.127518,208.871017 226.118378,266.035370 226.137207,323.199738 
	C226.140244,332.419464 229.262955,335.592041 238.330978,335.655914 
	C246.496902,335.713470 254.663635,335.691589 262.829865,335.663544 
	C272.953979,335.628815 275.847870,332.703064 275.852631,322.497070 
	C275.864197,297.831390 275.856506,273.165741 275.856598,247.500046 
z"/>
<path fill="#E3DDDA" opacity="1.000000" stroke="none" 
	d="
M363.887329,284.071930 
	C370.509216,311.402802 370.872284,338.249054 361.302734,364.523468 
	C350.232849,394.917419 327.303864,411.950592 296.155853,416.628387 
	C265.466095,421.237305 234.291077,421.038025 203.539078,416.996857 
	C163.302856,411.709351 137.475357,386.162903 130.291763,346.177826 
	C125.738121,320.831482 127.000793,295.686218 137.064728,271.644867 
	C147.969254,245.595459 166.618683,228.210495 194.900543,222.421738 
	C198.469620,221.691208 202.156708,221.394119 205.804306,221.226318 
	C210.429260,221.013519 214.024185,224.055298 214.101273,228.693253 
	C214.292191,240.183243 214.172546,251.679535 214.080078,263.172516 
	C214.045532,267.467743 211.250092,269.669281 207.539536,271.018646 
	C202.395844,272.889221 197.161652,274.551239 192.138260,276.704041 
	C180.970352,281.490082 173.540100,290.127899 171.366013,301.805481 
	C169.566681,311.470245 168.806183,321.721191 169.907684,331.449493 
	C172.038437,350.267975 183.935883,361.460541 202.009308,365.809509 
	C208.908524,367.469635 216.155289,368.452362 223.239914,368.432037 
	C244.856384,368.370026 266.648499,369.242401 288.042297,366.827576 
	C315.983307,363.673676 329.831940,344.751434 327.668457,316.698669 
	C327.249542,311.266663 326.303040,305.797607 324.893524,300.534851 
	C321.217957,286.811523 311.625031,278.701752 298.616821,274.149750 
	C295.953156,273.217651 293.194183,272.557129 290.533752,271.616852 
	C283.896210,269.270813 282.181427,266.918915 282.121674,259.785736 
	C282.042114,250.289642 282.015991,240.791351 282.128876,231.295944 
	C282.222870,223.392059 285.633759,220.953629 293.552612,221.499954 
	C329.121887,223.953842 354.264984,249.938034 363.887329,284.071930 
M149.479660,384.985565 
	C162.195496,400.945679 178.879959,410.752777 198.765793,413.828491 
	C231.016403,418.816589 263.593384,418.746918 295.821808,414.208374 
	C324.147797,410.219391 346.385529,395.340363 357.160034,368.124084 
	C370.889252,333.444427 370.280731,298.321167 353.311737,264.634247 
	C340.973511,240.140320 320.724579,226.100754 292.915131,223.956406 
	C286.209351,223.439346 284.696350,224.859497 284.629486,231.790131 
	C284.552338,239.789261 284.609558,247.789703 284.609985,255.789566 
	C284.610626,267.325012 284.678864,267.447510 295.619598,270.615723 
	C309.005737,274.492035 319.950897,281.402496 325.534912,294.847565 
	C329.302399,303.918823 330.297791,313.445496 330.088135,323.209503 
	C329.551910,348.181702 316.337280,364.786163 291.781647,368.787659 
	C279.054535,370.861603 265.923676,371.092529 252.979736,371.040131 
	C236.864151,370.974884 220.598648,370.903259 204.678467,368.755005 
	C183.619034,365.913269 170.690674,352.947327 167.570923,332.560638 
	C166.213882,323.692780 166.814560,314.264923 168.086777,305.313232 
	C170.256409,290.047028 178.856964,279.066223 193.437164,273.279083 
	C197.287704,271.750732 201.260681,270.495148 205.244766,269.348267 
	C209.865845,268.017975 212.128860,265.362885 212.012329,260.325012 
	C211.788895,250.663651 211.987198,240.993256 211.932709,231.327042 
	C211.898376,225.236206 210.096649,223.476730 204.121994,223.928116 
	C172.126236,226.345490 151.507690,244.181702 139.222061,272.664185 
	C130.292114,293.367035 129.124481,315.265045 131.381683,337.366089 
	C133.132797,354.511871 138.346573,370.540894 149.479660,384.985565 
z"/>
<path fill="#D5CFCB" opacity="1.000000" stroke="none" 
	d="
M275.856567,248.000061 
	C275.856506,273.165741 275.864197,297.831390 275.852631,322.497070 
	C275.847870,332.703064 272.953979,335.628815 262.829865,335.663544 
	C254.663635,335.691589 246.496902,335.713470 238.330978,335.655914 
	C229.262955,335.592041 226.140244,332.419464 226.137207,323.199738 
	C226.118378,266.035370 226.127518,208.871017 226.127350,151.706650 
	C226.127350,149.734528 226.127335,147.762405 226.127335,145.279587 
	C223.892197,145.279587 222.111618,145.279648 220.331039,145.279556 
	C202.831741,145.278687 185.332382,145.308105 167.833206,145.261719 
	C161.019379,145.243652 157.231934,141.727798 157.053513,134.959229 
	C156.851562,127.298180 156.860703,119.624275 157.046188,111.962448 
	C157.218369,104.850113 160.390747,101.806015 167.545090,101.356903 
	C168.707443,101.283943 169.877640,101.330696 171.044205,101.330681 
	C224.208725,101.329819 277.373260,101.327583 330.537781,101.331718 
	C342.267792,101.332634 344.987000,104.052841 344.990784,115.739388 
	C344.992798,121.905800 345.086609,128.074173 344.962982,134.238129 
	C344.814026,141.664673 341.193939,145.243927 333.861786,145.262680 
	C316.529236,145.307022 299.196564,145.278610 281.863922,145.279556 
	C280.048676,145.279663 278.233429,145.279572 275.856598,145.279572 
	C275.856598,179.575775 275.856598,213.537918 275.856567,248.000061 
M331.232513,142.910324 
	C340.844147,142.879379 342.349640,141.418411 342.377777,131.996292 
	C342.397156,125.499939 342.482391,119.001114 342.340637,112.507706 
	C342.196045,105.882881 340.195312,103.974648 333.476929,103.971603 
	C278.340424,103.946632 223.203934,103.945847 168.067444,103.972786 
	C161.690643,103.975899 159.778503,105.842850 159.644699,112.325806 
	C159.496948,119.485535 159.516754,126.651939 159.628098,133.812866 
	C159.738373,140.905289 161.845764,142.890671 169.048233,142.901505 
	C186.705200,142.928040 204.362228,142.910278 222.019241,142.910339 
	C224.125183,142.910339 226.231140,142.910339 228.840683,142.910339 
	C228.840683,145.650345 228.840668,147.776474 228.840683,149.902603 
	C228.841064,207.704315 228.835968,265.506042 228.848160,323.307739 
	C228.849854,331.322662 230.547150,333.017059 238.467484,333.039307 
	C246.463043,333.061768 254.458725,333.049652 262.454346,333.043762 
	C271.970184,333.036743 273.145142,331.885590 273.146057,322.459137 
	C273.151489,264.824005 273.148987,207.188858 273.149139,149.553726 
	C273.149170,147.453522 273.149170,145.353302 273.149170,142.910339 
	C292.683105,142.910339 311.486664,142.910339 331.232513,142.910324 
z"/>
<path fill="#C7530B" opacity="1.000000" stroke="none" 
	d="
M149.252686,384.707092 
	C138.346573,370.540894 133.132797,354.511871 131.381683,337.366089 
	C129.124481,315.265045 130.292114,293.367035 139.222061,272.664185 
	C151.507690,244.181702 172.126236,226.345490 204.121994,223.928116 
	C210.096649,223.476730 211.898376,225.236206 211.932709,231.327042 
	C211.987198,240.993256 211.788895,250.663651 212.012329,260.325012 
	C212.128860,265.362885 209.865845,268.017975 205.244766,269.348267 
	C201.260681,270.495148 197.287704,271.750732 193.437164,273.279083 
	C178.856964,279.066223 170.256409,290.047028 168.086777,305.313232 
	C166.814560,314.264923 166.213882,323.692780 167.570923,332.560638 
	C170.690674,352.947327 183.619034,365.913269 204.678467,368.755005 
	C220.598648,370.903259 236.864151,370.974884 252.979736,371.040131 
	C265.923676,371.092529 279.054535,370.861603 291.781647,368.787659 
	C316.337280,364.786163 329.551910,348.181702 330.088135,323.209503 
	C330.297791,313.445496 329.302399,303.918823 325.534912,294.847565 
	C319.950897,281.402496 309.005737,274.492035 295.619598,270.615723 
	C284.678864,267.447510 284.610626,267.325012 284.609985,255.789566 
	C284.609558,247.789703 284.552338,239.789261 284.629486,231.790131 
	C284.696350,224.859497 286.209351,223.439346 292.915131,223.956406 
	C320.724579,226.100754 340.973511,240.140320 353.311737,264.634247 
	C370.280731,298.321167 370.889252,333.444427 357.160034,368.124084 
	C346.385529,395.340363 324.147797,410.219391 295.821808,414.208374 
	C263.593384,418.746918 231.016403,418.816589 198.765793,413.828491 
	C178.879959,410.752777 162.195496,400.945679 149.252686,384.707092 
z"/>
<path fill="#C7520A" opacity="1.000000" stroke="none" 
	d="
M330.761353,142.910339 
	C311.486664,142.910339 292.683105,142.910339 273.149170,142.910339 
	C273.149170,145.353302 273.149170,147.453522 273.149139,149.553726 
	C273.148987,207.188858 273.151489,264.824005 273.146057,322.459137 
	C273.145142,331.885590 271.970184,333.036743 262.454346,333.043762 
	C254.458725,333.049652 246.463043,333.061768 238.467484,333.039307 
	C230.547150,333.017059 228.849854,331.322662 228.848160,323.307739 
	C228.835968,265.506042 228.841064,207.704315 228.840683,149.902603 
	C228.840668,147.776474 228.840683,145.650345 228.840683,142.910339 
	C226.231140,142.910339 224.125183,142.910339 222.019241,142.910339 
	C204.362228,142.910278 186.705200,142.928040 169.048233,142.901505 
	C161.845764,142.890671 159.738373,140.905289 159.628098,133.812866 
	C159.516754,126.651939 159.496948,119.485535 159.644699,112.325806 
	C159.778503,105.842850 161.690643,103.975899 168.067444,103.972786 
	C223.203934,103.945847 278.340424,103.946632 333.476929,103.971603 
	C340.195312,103.974648 342.196045,105.882881 342.340637,112.507706 
	C342.482391,119.001114 342.397156,125.499939 342.377777,131.996292 
	C342.349640,141.418411 340.844147,142.879379 330.761353,142.910339 
z"/>
</svg>